<svg id="Layer_1" data-name="Layer 1" xmlns="http://www.w3.org/2000/svg" viewBox="0 0 145.24 162.93"><defs><style>.cls-1{fill:#202020;}.cls-2{font-size:12px;font-family:Bauhaus93, Bauhaus 93;}.cls-3{font-size:24px;font-family:ArialRoundedMTBold, Arial Rounded MT Bold;}</style></defs><title>logo2</title><path class="cls-1" d="M241.05,176a53.72,53.72,0,0,0-2.55-15.47,50.16,50.16,0,0,0-22.56-27.79,50,50,0,0,0-48.26-1A50.08,50.08,0,0,0,141,178.94a49.64,49.64,0,0,0,9.65,26.85,50.19,50.19,0,0,0,34.81,20.15,52.28,52.28,0,0,0,12.83-.2,49.9,49.9,0,0,0,21.56-8.51,51.06,51.06,0,0,0,17.54-21.49,53.08,53.08,0,0,0,2.28-6.59,46.36,46.36,0,0,0,1.63-9.66c.13-1.13.08-2,.12-2.6l0-.89a52.8,52.8,0,0,1,2.18,14,54.38,54.38,0,0,1-1.89,15,57.84,57.84,0,0,1-32.08,25.29,56.31,56.31,0,0,1-68.2-29.7,55.35,55.35,0,0,1-5-19.06,56,56,0,0,1,2.06-19.46,54.06,54.06,0,0,1,22.83-30.26,52.61,52.61,0,0,1,36.38-7.49,50.92,50.92,0,0,1,17.51,6.13,51.84,51.84,0,0,1,14.11,11.87,50.3,50.3,0,0,1,9,15.86A51.2,51.2,0,0,1,241.05,176Z" transform="translate(-98.4 -97.59)"/><path class="cls-1" d="M236.53,136.66l-1-1.14-2.17-2.22a62.38,62.38,0,0,0-8.1-6.69,60.19,60.19,0,0,0-94.14,43.28,62.43,62.43,0,0,0,.2,14A60.07,60.07,0,0,0,141,209.7,61,61,0,0,0,160.48,228,60.13,60.13,0,0,0,184.13,236a61.56,61.56,0,0,0,22.36-1.57,57.61,57.61,0,0,0,9.39-3.33,56.28,56.28,0,0,0,7.92-4.3c1.21-.73,2.29-1.58,3.38-2.32s2.08-1.57,3-2.4l1.37-1.17c.43-.39.84-.8,1.25-1.18.83-.76,1.57-1.54,2.27-2.28A63.8,63.8,0,0,0,241,210.1l1.81-2.79a62.73,62.73,0,0,1-13.4,23.47A66.16,66.16,0,0,1,193.31,242a65.35,65.35,0,0,1-9.49-.55,69.69,69.69,0,0,1-9.28-1.89,72.56,72.56,0,0,1-8.86-3.21,70.93,70.93,0,0,1-8.29-4.45,65.18,65.18,0,0,1-24.3-27.73,64.1,64.1,0,0,1-5.14-36A62.7,62.7,0,0,1,173,116.79a61.71,61.71,0,0,1,34.94.59A60.68,60.68,0,0,1,236.53,136.66Z" transform="translate(-98.4 -97.59)"/><path class="cls-1" d="M209.49,108.72c-.21,0-.66-.19-1.37-.35l-2.81-.63a71.59,71.59,0,0,0-24-.75,69.31,69.31,0,0,0-17.56,4.85,76.43,76.43,0,0,0-9.19,4.74,70.93,70.93,0,0,0-8.89,6.5,69.55,69.55,0,0,0-15.06,18.1,68.83,68.83,0,0,0-8.43,23.56,71,71,0,0,0,.56,25.74,69,69,0,0,0,9.83,23.72,70.07,70.07,0,0,0,37.71,28.59,75.27,75.27,0,0,0,10.5,2.39,76.68,76.68,0,0,0,10,.77,72.71,72.71,0,0,0,17.45-2.11A68.39,68.39,0,0,0,221,239.27c.85-.39,1.63-.82,2.38-1.2s1.44-.75,2.07-1.12l1.76-1,1.42-.9c1.71-1.06,2.57-1.71,2.57-1.71a70.12,70.12,0,0,1-19.49,14.9,75.34,75.34,0,0,1-17.07,2.48,76.13,76.13,0,0,1-17.11-1.48,73.85,73.85,0,0,1-30.78-14.18,75.84,75.84,0,0,1-12.06-11.9,72.61,72.61,0,0,1-8.15-78.75,73.58,73.58,0,0,1,9.19-13.68,72.58,72.58,0,0,1,12-11.16,69.49,69.49,0,0,1,14.18-8.1,68.61,68.61,0,0,1,15.57-4.61A70.6,70.6,0,0,1,209.49,108.72Z" transform="translate(-98.4 -97.59)"/><path class="cls-1" d="M182.75,98.39a81.89,81.89,0,0,0-12.34,2.38,78.43,78.43,0,0,0-26.14,12.78,80.89,80.89,0,0,0-13.76,13.2,85.77,85.77,0,0,0-6,8.45,79.39,79.39,0,0,0-5,9.57,76.91,76.91,0,0,0-5.94,21.65c-.28,1.9-.37,3.82-.52,5.73s-.14,3.85-.05,5.78.18,3.87.33,5.8.41,3.85.79,5.75a74.36,74.36,0,0,0,2.82,11.25,72.81,72.81,0,0,0,4.43,10.61,73.89,73.89,0,0,0,5.82,9.68,75.41,75.41,0,0,0,6.95,8.54,79.21,79.21,0,0,0,16.1,13.14,80.05,80.05,0,0,0,16.92,7.77,75.34,75.34,0,0,0,15.38,3.28,84.43,84.43,0,0,0,12.11.4c1.67-.09,3.17-.22,4.47-.32l3.29-.42c.89-.1,1.57-.26,2-.33l.69-.12a79.09,79.09,0,0,1-10.23,3.24c-1.76.37-3.54.83-5.35,1.09l-2.72.44-2.75.31a81.42,81.42,0,0,1-68-52.12,79.6,79.6,0,0,1-5.2-29.06,80.45,80.45,0,0,1,5.56-28.79,79.31,79.31,0,0,1,38.69-41.95A77.9,77.9,0,0,1,182.75,98.39Z" transform="translate(-98.4 -97.59)"/><path class="cls-1" d="M157.08,97.59,154,99c-1.66.85-4,2-6.72,3.64a86.78,86.78,0,0,0-19.72,16.19,85.51,85.51,0,0,0,18.49,130,87.83,87.83,0,0,0,12.25,6.29c1.9.77,3.69,1.48,5.38,2s3.25,1,4.67,1.43,2.7.68,3.81,1,2.06.47,2.84.6l2.38.42a85.45,85.45,0,0,1-18.73-1.72,88.74,88.74,0,0,1-39.88-32.49,87,87,0,0,1-14.9-48.73,82.89,82.89,0,0,1,.92-12.78c.26-2.12.73-4.21,1.14-6.31s1-4.16,1.64-6.19,1.34-4.06,2.06-6.07,1.59-4,2.54-5.87,1.92-3.8,2.93-5.67,2.15-3.66,3.36-5.41A86.1,86.1,0,0,1,157.08,97.59Z" transform="translate(-98.4 -97.59)"/><path class="cls-1" d="M139.7,100.6c-.45.37-3.28,2.21-7.45,5.71a91,91,0,0,0-32.19,76.51,91.33,91.33,0,0,0,41.52,70c2.09,1.39,3.82,2.34,5,3,.59.34,1,.59,1.35.75l.46.24a92.5,92.5,0,0,1-14.64-6.31,94.09,94.09,0,0,1-27-34.46,95.17,95.17,0,0,1-6.69-20.92,93.22,93.22,0,0,1-1.56-21.77,91.94,91.94,0,0,1,11.93-41.49A91.49,91.49,0,0,1,139.7,100.6Z" transform="translate(-98.4 -97.59)"/><text class="cls-2" transform="translate(55.33 61.26)">Zoe Young<tspan x="0" y="14.4">Web Designs</tspan></text><text class="cls-3" transform="translate(83.89 107.27) rotate(-10)">W</text><text class="cls-3" transform="translate(65.66 120.79) rotate(-20)">W</text><text class="cls-3" transform="translate(103.14 110.4) rotate(10)">W</text></svg>